<svg xmlns="http://www.w3.org/2000/svg" viewBox="0 0 227.585 78.888">
	<path fill="#fff" d="M51.293 0.001c-9.273 0-16.816 7.543-16.816 16.817c0 9.3 7.5 16.8 16.8 16.8 s16.815-7.549 16.815-16.821C68.108 7.5 60.6 0 51.3 0 M51.293 30.326c-7.449 0-13.51-6.062-13.51-13.508 c0-7.443 6.061-13.504 13.51-13.504c7.449 0 13.5 6.1 13.5 13.504C64.802 24.3 58.7 30.3 51.3 30.3"/>
	<path fill="#fff" d="M196.294 17.032c-0.904-0.473-6.389-3.301-7.18-3.71c-2.879-1.468-3.898-2.771-3.898-4.976 c0-3.059 2.512-5.036 6.408-5.036c2.288 0 4.5 1 5.8 1.736c0.236 0.1 0.5 0.2 0.8 0.2 c0.912 0 1.654-0.74 1.654-1.652c0-0.612-0.334-1.146-0.828-1.432c-1.635-0.91-4.422-2.162-7.426-2.162 c-5.723 0-9.721 3.433-9.721 8.345c0 4.4 2.9 6.5 5.7 7.946c0.793 0.4 6.3 3.3 7.2 3.7 c2.192 1.1 3.4 2.9 3.4 4.851c0 2.656-2.248 5.48-6.413 5.48c-4.05 0-7.195-2.718-8.065-3.553l-0.256-0.248l-2.45 2.2 l0.289 0.285c1.086 1.1 5.1 4.6 10.5 4.597c6.084 0 9.72-4.471 9.72-8.791C201.53 21.6 199.6 18.8 196.3 17"/>
	<path fill="#fff" d="M16.814 3.314c3.611 0 7 1.4 9.6 3.952c0.606 0.6 1.7 0.6 2.3 0 c0.316-0.309 0.486-0.724 0.486-1.169c0-0.439-0.17-0.858-0.486-1.167l-0.2-0.209c-3.151-3.043-7.305-4.72-11.691-4.72 C7.542 0 0 7.5 0 16.817c0 9.3 7.5 16.8 16.8 16.822c4.894 0 9.303-2.101 12.376-5.449l-2.34-2.344 c-2.474 2.75-6.056 4.48-10.036 4.48c-7.448 0-13.508-6.062-13.508-13.509C3.307 9.4 9.4 3.3 16.8 3.3"/>
	<path fill="#fff" d="M130.815 3.314c3.607 0 7 1.4 9.6 3.952c0.604 0.6 1.7 0.6 2.3 0 c0.315-0.309 0.487-0.724 0.487-1.169c0-0.439-0.172-0.858-0.487-1.167l-0.202-0.209c-3.153-3.043-7.305-4.72-11.689-4.72 c-9.272 0-16.817 7.543-16.817 16.816c0 9.3 7.5 16.8 16.8 16.822c4.892 0 9.301-2.101 12.377-5.449l-2.343-2.344 c-2.473 2.75-6.056 4.48-10.034 4.48c-7.449 0-13.511-6.062-13.511-13.509C117.305 9.4 123.4 3.3 130.8 3.3"/>
	<path fill="#fff" d="M102.329 0c-0.621 0-1.11 0.4-1.379 0.919c-0.271 0.516-9.895 24.321-9.895 24.3 S81.43 1.4 81.2 0.92C80.889 0.4 80.4 0 79.8 0c-0.725 0-1.271 0.532-1.463 1.206c-0.192 0.676-5.622 30.639-5.622 30.6 c-0.018 0.097-0.029 0.197-0.029 0.301c0 0.8 0.7 1.5 1.5 1.492c0.726 0 1.333-0.52 1.465-1.207l4.701-25.633 c0 0 9.1 22.4 9.3 22.949c0.266 0.5 0.8 0.9 1.4 0.945c0.63 0 1.123-0.412 1.389-0.945 c0.266-0.533 9.339-22.949 9.339-22.949l4.889 26.654h3.032c0 0-5.72-31.57-5.911-32.246C103.6 0.5 103.1 0 102.3 0"/>
	<path fill="#fff" d="M162.119 0.001c-0.63-0.001-1.115 0.408-1.388 0.943c-0.272 0.533-12.455 30.621-12.455 30.6 c-0.074 0.179-0.115 0.376-0.115 0.581c0 0.8 0.7 1.5 1.5 1.493c0.629 0 1.168-0.392 1.387-0.947l4.73-11.634h12.701 l5.045 12.394h3.221c0 0-12.963-31.975-13.23-32.508C163.239 0.4 162.8 0 162.1 0 M157.12 17.747l4.999-12.297 l5.005 12.297H157.12z"/>
	<path fill="#fff" d="M227.585 1.834c0-0.915-0.745-1.655-1.658-1.655h-18.725c-0.911 0-1.651 0.74-1.651 1.7 c0 0.9 0.7 1.7 1.7 1.652h7.851v29.966h3.03V3.487h7.844C226.84 3.5 227.6 2.7 227.6 1.8"/>
	<path fill="#fff" d="M99.5 45.24c-1.657 0-2.682 1.166-2.682 2.599v30.849h5.362V47.838 C102.181 46.4 101.2 45.2 99.5 45.2"/>
	<path fill="#fff" d="M38.676 65.47l0.003-17.623c0-1.433-1.053-2.598-2.681-2.598 c-1.65 0-2.685 1.165-2.685 2.598v17.464c0 7.5 5.3 13.6 13.7 13.554c8.371 0 13.652-6.077 13.652-13.554l0.005-19.892 h-5.373V65.47c0 4.412-2.934 8.357-8.284 8.357C41.612 73.8 38.7 69.9 38.7 65.5"/>
	<path fill="#fff" d="M168.546 50.664c1.756 0 2.836-1.129 2.836-2.622 c0-1.496-1.076-2.625-2.836-2.625h-16.417c-1.528 0-2.601 1.082-2.601 2.596v28.093c0 1.5 1.1 2.6 2.6 2.584h19.077v-5.23 h-16.324V63.8h12.311c1.866 0 2.897-1.109 2.897-2.615c0-1.505-1.022-2.615-2.897-2.615h-12.311v-7.906H168.546z"/>
	<path fill="#fff" d="M21.606 60.677c0.889-0.567 3.357-2.508 3.357-6.82 c0-5.102-3.65-8.439-9.241-8.439H4.229c-1.551 0-2.591 1.06-2.591 2.592v30.678h14.758c5.979 0 10.112-4.354 10.112-9.921 C26.507 62.8 22.6 61.1 21.6 60.7 M7 50.618h8.044c3.023 0 4.5 1.8 4.5 4.046c0 2.225-1.612 4.047-4.491 4.047H7 V50.618z M15.387 73.554H7v-9.948l8.388 0.002c3.855 0 5.7 2.2 5.7 4.972C21.081 71.3 19.1 73.6 15.4 73.6"/>
	<path fill="#fff" d="M115.451 45.24c-1.622 0-2.67 1.153-2.67 2.572v28.463 c0 1.4 1.3 2.6 2.7 2.584c1.4 0 2.66-1.149 2.66-2.584V55.738c0 0 13 16.7 16.5 21.1 c0.864 1.1 1.5 2 3 2.026c1.556 0 2.599-1.127 2.599-2.586V45.414h-5.353v23.033c0 0-14.549-18.662-16.578-21.248 C117.419 46 116.7 45.2 115.5 45.2"/>
	<path fill="#fff" d="M66.86 73.929c0.682 0.9 3.8 5 10.7 5 c6.777 0 11.399-3.906 11.399-9.35c0-3.576-1.41-6.463-6.706-9.012c-1.416-0.688-5.406-2.6-5.406-2.6 c-2.125-1.027-3.057-2.248-3.057-3.892c0-1.751 1.441-3.63 4.939-3.63c1.992 0 3.5 0.6 4.4 1 c0.404 0.2 1.4 0.6 2.3 0.644c1.177 0 2.454-0.836 2.454-2.537c0-1.422-1.02-2.195-1.91-2.616 c-1.434-0.677-3.666-1.654-7.414-1.654c-5.924 0-10.317 3.755-10.317 8.941c0 4.8 3.2 7.1 7.1 9 c0.735 0.4 3.6 1.7 4.4 2.119c2.44 1.2 3.7 2.3 3.7 4.36c0 2.226-2.066 4.075-5.209 4.1 c-4.5 0-6.896-2.952-7.336-3.45L66.86 73.929z"/>
	<path fill="#fff" d="M176.671 73.929c0.684 0.9 3.8 5 10.8 5 c6.769 0 11.383-3.906 11.383-9.35c0-3.576-1.385-6.463-6.708-9.012c-1.408-0.688-5.398-2.6-5.398-2.6 c-2.131-1.027-3.062-2.248-3.062-3.892c0-1.751 1.438-3.63 4.955-3.63c1.985 0 3.5 0.6 4.3 1 c0.408 0.2 1.4 0.6 2.3 0.644c1.175 0 2.459-0.836 2.459-2.537c0-1.422-1.021-2.195-1.917-2.616 c-1.443-0.677-3.684-1.654-7.412-1.654c-5.916 0-10.326 3.755-10.326 8.941c0 4.8 3.2 7.1 7.1 9 c0.744 0.4 3.6 1.7 4.4 2.119c2.414 1.2 3.7 2.3 3.7 4.36c0 2.226-2.076 4.075-5.199 4.1 c-4.52 0-6.897-2.952-7.334-3.45L176.671 73.929z"/>
	<path fill="#fff" d="M203.896 73.929c0.684 0.9 3.8 5 10.7 5 c6.771 0 11.42-3.906 11.42-9.35c0-3.576-1.42-6.463-6.705-9.012c-1.426-0.688-5.435-2.6-5.435-2.6 c-2.096-1.027-3.028-2.248-3.028-3.892c0-1.751 1.439-3.63 4.92-3.63c2 0 3.6 0.6 4.4 1 c0.394 0.2 1.3 0.6 2.2 0.644c1.176 0 2.463-0.836 2.463-2.537c0-1.422-1.023-2.195-1.92-2.616 c-1.443-0.677-3.646-1.654-7.414-1.654c-5.912 0-10.293 3.755-10.293 8.941c0 4.8 3.2 7.1 7.1 9 c0.729 0.4 3.6 1.7 4.4 2.119c2.451 1.2 3.7 2.3 3.7 4.36c0 2.226-2.061 4.075-5.221 4.1 c-4.486 0-6.898-2.952-7.335-3.45L203.896 73.929z"/>
</svg>
