<svg xmlns="http://www.w3.org/2000/svg" xmlns:xlink="http://www.w3.org/1999/xlink" role="presentation" focusable="false" style="display: none;">
	<symbol id="icon-caret-up" class="symbol-caret-up" width="25" height="25" viewBox="0 0 25 25"><path d="M12,5.15a0.76,0.76,0,0,1,.4.2l11,12.6a0.49,0.49,0,1,1-.7.7L12,6.35,1.3,18.55a0.48,0.48,0,0,1-.7,0,0.48,0.48,0,0,1,0-.7l11-12.6C11.7,5.25,11.9,5.15,12,5.15Z"/></symbol>
	<symbol id="icon-check" class="symbol-check" width="25" height="25" viewBox="0 0 25 25"><path d="M7.2 23.5c-.1 0-.3-.1-.4-.1L.6 17.2c-.2-.2-.2-.5 0-.7.2-.2.5-.2.7 0l5.8 5.8L22.6.7c.2-.2.5-.3.7-.1.2.2.3.5.1.7l-15.8 22c-.1.1-.2.2-.4.2.1 0 0 0 0 0z"/></symbol>
	<symbol id="icon-chevron-right" class="symbol-chevron-right" width="25" height="25" viewBox="0 0 25 25"><path d="M6.43 25c-0.14 0-0.28-0.06-0.38-0.17 -0.18-0.21-0.16-0.52 0.05-0.7L18.81 13 6.1 1.88C5.89 1.69 5.87 1.38 6.06 1.17 6.24 0.96 6.55 0.94 6.76 1.12l13.14 11.5c0.11 0.1 0.17 0.23 0.17 0.38 0 0.14-0.06 0.28-0.17 0.38L6.76 24.88C6.67 24.96 6.55 25 6.43 25z"/></symbol>
	<symbol id="icon-circle-close" class="symbol-circle-close" width="25" height="25" viewBox="0 0 25 25"><path d="M12 .5C5.7.5.5 5.7.5 12S5.7 23.5 12 23.5 23.5 18.3 23.5 12 18.3.5 12 .5zm0 22C6.2 22.5 1.5 17.8 1.5 12S6.2 1.5 12 1.5 22.5 6.2 22.5 12 17.8 22.5 12 22.5zm4.6-14.4L12.7 12l3.9 3.9c.2.2.2.5 0 .7-.1.1-.2.1-.4.1s-.3 0-.4-.1L12 12.7l-3.9 3.9c-.2.2-.5.2-.7 0s-.2-.5 0-.7l3.9-3.9-3.9-3.9c-.2-.2-.2-.5 0-.7s.5-.2.7 0l3.9 3.9 3.9-3.9c.2-.2.5-.2.7 0s.2.5 0 .7z"/></symbol>
	<symbol id="icon-circle-alert" class="symbol-circle-alert" width="25" height="25" viewBox="0 0 25 25"><path d="M20.1,3.7c-2.2-2.1-5-3.3-8.1-3.2C8.9,0.6,6,1.8,3.8,4c-2.2,2.2-3.4,5.1-3.3,8.2 c0.1,3.1,1.3,5.9,3.4,8.1c2.1,2.1,4.9,3.2,7.9,3.2c0.1,0,0.1,0,0.2,0c6.4-0.1,11.6-5.4,11.5-11.7C23.4,8.7,22.2,5.9,20.1,3.7z M12,22.5c-2.8,0-5.4-1-7.4-2.9c-2-1.9-3.1-4.6-3.1-7.4c0-2.8,1-5.4,3-7.5c2-2,4.7-3.2,7.5-3.2c0.1,0,0.1,0,0.2,0 c2.7,0,5.3,1,7.2,2.9c2,1.9,3.1,4.6,3.1,7.4C22.6,17.6,17.9,22.4,12,22.5z M11.5,13.5v-7C11.5,6.2,11.7,6,12,6s0.5,0.2,0.5,0.5v7 c0,0.3-0.2,0.5-0.5,0.5S11.5,13.8,11.5,13.5z M13,17c0,0.6-0.4,1-1,1s-1-0.4-1-1s0.4-1,1-1S13,16.4,13,17z"/></symbol>
	<symbol id="icon-circle-check" class="symbol-circle-check" width="25" height="25" viewBox="0 0 25 25"><path d="M12,0A12,12,0,1,0,24,12,12,12,0,0,0,12,0Zm0,23A11,11,0,1,1,23,12,11,11,0,0,1,12,23Z"/><path d="M16.7,8.1L9.6,14.8,7.4,12.6a0.49,0.49,0,0,0-.7.7l2.5,2.5a0.24,0.24,0,0,0,.3.2,0.37,0.37,0,0,0,.3-0.1l7.5-7a0.48,0.48,0,0,0,0-.7C17.1,8,16.9,7.9,16.7,8.1Z"/></symbol>
	<symbol id="icon-circle-close-fill" class="symbol-circle-close-fill" width="25" height="25" viewBox="0 0 25 25"><path d="M12 .5C5.7.5.5 5.6.5 12c0 3.1 1.2 6 3.4 8.1 2.2 2.2 5.1 3.4 8.1 3.4 6.3 0 11.5-5.1 11.5-11.5C23.5 5.7 18.4.5 12 .5zm4.6 15.4c.2.2.2.5 0 .7-.1.1-.2.1-.4.1-.1 0-.3 0-.4-.1L12 12.7l-3.9 3.9c-.1.1-.2.1-.4.1s-.3 0-.4-.1c-.2-.2-.2-.5 0-.7l3.9-3.9-3.8-3.9c-.2-.2-.2-.5 0-.7.2-.2.5-.2.7 0l3.9 3.9 3.9-3.9c.2-.2.5-.2.7 0 .2.2.2.5 0 .7L12.7 12l3.9 3.9z"/></symbol>
	<symbol id="icon-close" class="symbol-close" width="25" height="25" viewBox="0 0 25 25"><path d="M12.7 12L23.4 1.3c.2-.2.2-.5 0-.7s-.5-.2-.7 0L12 11.3 1.3.6C1.1.4.8.4.6.6s-.2.5 0 .7L11.3 12 .6 22.7c-.2.2-.2.5 0 .7s.5.2.7 0L12 12.7l10.7 10.7c.1.1.2.1.3.1.1 0 .2 0 .3-.1.2-.2.2-.5 0-.7L12.7 12z"/></symbol>
	<symbol id="icon-cloud" class="symbol-cloud" width="25" height="25" viewBox="0 0 25 25"><path d="M12 22.3h-.2c-.1 0-.1-.1-.2-.1L8.5 19c-.2-.2-.2-.5 0-.7.2-.2.5-.2.7 0l2.2 2.2v-9.2c0-.3.2-.5.5-.5s.5.2.5.5v9.2l2.2-2.2c.2-.2.5-.2.7 0 .2.2.2.5 0 .7l-3.1 3.1s-.1.1-.2.1c.1.1.1.1 0 .1zm-7.5-5.6c-.2 0-2.1 0-3.4-1.3-.8-.7-1.1-1.7-1.1-3s.6-2.5 1.6-3.3c.9-.7 1.9-1 3-.9.5-3.7 3.6-6.5 7.4-6.5 2.8 0 5.3 1.6 6.6 4 1.4 0 2.7.6 3.7 1.5 1.1 1 1.7 2.5 1.7 4 0 4.8-4.9 5.5-4.9 5.5h-1.6c-.3 0-.5-.2-.5-.5s.2-.5.5-.5H19c.1 0 4-.6 4-4.5 0-1.2-.5-2.4-1.4-3.2-.9-.8-2-1.3-3.3-1.2-.3 0-.4-.1-.5-.3-1.1-2.2-3.4-3.7-5.8-3.7-3.4 0-6.2 2.7-6.4 6.1 0 .2-.1.3-.2.4-.2 0-.3.1-.5 0-.9-.2-1.9.1-2.7.7-.7.6-1.2 1.5-1.2 2.5 0 .9.3 1.7.8 2.2 1 1 2.6 1 2.6 1h2c.3 0 .5.2.5.5s-.2.5-.5.5H4.5z"/></symbol>
	<symbol id="icon-computer" class="symbol-computer" width="25" height="25" viewBox="0 0 25 25"><path d="M22.5 2.5h-21C.7 2.5 0 3.2 0 4v13c0 .8.7 1.5 1.5 1.5H10v2H7c-.3 0-.5.2-.5.5s.2.5.5.5h10c.3 0 .5-.2.5-.5s-.2-.5-.5-.5h-3v-2h8.5c.8 0 1.5-.7 1.5-1.5V4c0-.8-.7-1.5-1.5-1.5zm-9.5 18h-2v-2h2v2zM23 17c0 .3-.2.5-.5.5h-21c-.3 0-.5-.2-.5-.5V4c0-.3.2-.5.5-.5h21c.3 0 .5.2.5.5v13zM21.5 4.5h-19c-.3 0-.5.2-.5.5v11c0 .3.2.5.5.5h19c.3 0 .5-.2.5-.5V5c0-.3-.2-.5-.5-.5zm-.5 11H3v-10h18v10z"/></symbol>
	<symbol id="icon-delete" class="symbol-delete" width="25" height="25" viewBox="0 0 25 25"><path d="M19.5 24h-16C3.2 24 3 23.8 3 23.5V4H1C0.7 4 0.5 3.8 0.5 3.5S0.7 3 1 3h6V0.5C7 0.2 7.2 0 7.5 0h8C15.8 0 16 0.2 16 0.5V3h7c0.3 0 0.5 0.2 0.5 0.5S23.3 4 23 4h-3v19.5C20 23.8 19.8 24 19.5 24zM4 23h15V4H4V23zM8 3h7V1H8V3zM15.5 19.5c-0.3 0-0.5-0.2-0.5-0.5V7c0-0.3 0.2-0.5 0.5-0.5S16 6.7 16 7v12C16 19.3 15.8 19.5 15.5 19.5zM11.5 19.5c-0.3 0-0.5-0.2-0.5-0.5V7c0-0.3 0.2-0.5 0.5-0.5S12 6.7 12 7v12C12 19.3 11.8 19.5 11.5 19.5zM7.5 19.5C7.2 19.5 7 19.3 7 19V7c0-0.3 0.2-0.5 0.5-0.5S8 6.7 8 7v12C8 19.3 7.8 19.5 7.5 19.5z"/></symbol>
	<symbol id="icon-download" class="symbol-download" width="25" height="25" viewBox="0 0 25 25"><path d="M23.5 24h-23C0.2 24 0 23.8 0 23.5v-7c0 0 0-0.1 0-0.1 0 0 0-0.1 0.1-0.1l3.5-6C3.7 10.1 3.8 10 4 10h2.5C6.8 10 7 10.2 7 10.5S6.8 11 6.5 11H4.3l-2.9 5H8c0.3 0 0.5 0.2 0.5 0.5v1c0 0.8 0.7 1.5 1.5 1.5h4.5c0.8 0 1.5-0.7 1.5-1.5v-1c0-0.3 0.2-0.5 0.5-0.5h6.1l-2.9-5H17c-0.3 0-0.5-0.2-0.5-0.5S16.7 10 17 10h3c0.2 0 0.3 0.1 0.4 0.2l3.5 6c0 0 0 0.1 0.1 0.1 0 0 0 0.1 0 0.1V23.5C24 23.8 23.8 24 23.5 24zM1 23h22v-6h-6v0.5c0 1.4-1.1 2.5-2.5 2.5H10c-1.4 0-2.5-1.1-2.5-2.5V17H1V23zM11.5 12c0 0 0 0 0 0h0c0 0 0 0 0 0 0 0 0 0 0 0l0 0c-0.1 0-0.1 0-0.2 0 -0.1 0-0.1-0.1-0.2-0.1l0 0c0 0 0 0 0 0l0 0c0 0 0 0 0 0L7.1 7.9c-0.2-0.2-0.2-0.5 0-0.7s0.5-0.2 0.7 0L11 10.3V0.5C11 0.2 11.2 0 11.5 0S12 0.2 12 0.5v9.8l3.1-3.1c0.2-0.2 0.5-0.2 0.7 0s0.2 0.5 0 0.7l-4 4c0 0 0 0 0 0l0 0c0 0 0 0 0 0l0 0c0 0-0.1 0.1-0.2 0.1 -0.1 0-0.1 0-0.2 0l0 0c0 0 0 0 0 0 0 0 0 0 0 0h0C11.5 12 11.5 12 11.5 12z"/></symbol>
	<symbol id="icon-minus" class="symbol-minus" width="25" height="25" viewBox="0 0 25 25"><path d="M23.5,12.5H0.5a0.5,0.5,0,0,1,0-1h23A0.5,0.5,0,0,1,23.5,12.5Z"/></symbol>
	<symbol id="icon-network" class="symbol-network" width="25" height="25" viewBox="0 0 25 25"><path d="M20.653 6.248c-5.653-5.654-14.851-5.653-20.506 0-.195.195-.195.512 0 .707.097.098.225.147.353.147s.256-.049.354-.147c5.265-5.264 13.828-5.264 19.093 0 .195.195.512.195.707 0 .195-.195.195-.512-.001-.707zM17.052 9.375c-1.802-1.481-4.027-2.302-6.38-2.361l-.269-.014h-.005l-.258.013c-2.357.057-4.585.878-6.39 2.362-.267.22-.525.454-.773.702-.195.195-.195.512 0 .707.098.098.226.146.354.146.128 0 .256-.049.353-.146 1.51-1.51 3.442-2.441 5.528-2.701l.245-.036.488-.025.455-.022h.001l.493.024.452.022.485.072.439.065.451.113.449.112.466.167.404.145.351.166.484.229.162.097c.214.12.428.243.633.38.162.108.315.231.47.35l.279.208c.242.199.476.41.7.635.098.098.226.146.354.146.128 0 .256-.049.353-.146.195-.195.195-.512 0-.707-.249-.25-.507-.484-.774-.703zM14.997 13.903c-.634-.633-1.367-1.108-2.149-1.425-2.348-.95-5.142-.476-7.044 1.425-.195.195-.195.512 0 .707.195.195.512.195.707 0 .268-.268.558-.503.863-.703l.129-.068c.267-.166.541-.318.827-.434.256-.103.521-.169.787-.233l.232-.069c1.735-.335 3.6.167 4.941 1.507.098.098.226.146.354.146.128 0 .256-.049.353-.146.098-.098.147-.226.147-.354 0-.127-.049-.255-.147-.353zM10.4 17c-1.379 0-2.5 1.122-2.5 2.5s1.121 2.5 2.5 2.5 2.5-1.122 2.5-2.5-1.121-2.5-2.5-2.5zm0 4c-.827 0-1.5-.673-1.5-1.5s.673-1.5 1.5-1.5 1.5.673 1.5 1.5-.673 1.5-1.5 1.5z"/></symbol>
	<symbol id="icon-outbox" class="symbol-outbox" width="25" height="25" viewBox="0 0 25 25"><path d="M24 24.5H1c-.276 0-.5-.224-.5-.5v-6.99c0-.048.005-.096.018-.142.012-.045.03-.088.055-.127L4.07 10.75c.088-.154.252-.248.43-.248H8c.276 0 .5.224.5.5s-.224.5-.5.5H4.787l-2.917 5H8.5c.276 0 .5.224.5.5v1c0 .827.673 1.5 1.5 1.5H15c.827 0 1.5-.673 1.5-1.5v-1c0-.276.224-.5.5-.5h6.13l-2.917-5H18c-.276 0-.5-.224-.5-.5s.224-.5.5-.5h2.5c.178 0 .342.094.432.248l3.496 5.993c.023.04.042.083.055.128.013.046.02.094.018.14V24c0 .276-.224.5-.5.5zm-22.5-1h22v-6h-6v.5c0 1.38-1.12 2.5-2.5 2.5h-4.5C9.122 20.5 8 19.38 8 18v-.5H1.5v6zm11.5-11c-.276 0-.5-.224-.5-.5V2.207L9.354 5.354c-.195.195-.512.195-.707 0s-.195-.512 0-.707l3.998-4 .012-.01c.002 0 .002 0 .002-.002.044-.042.096-.075.15-.097.054-.022.113-.036.175-.038h.03c.063.002.12.015.176.038s.106.055.152.097l.013.012 4 4c.194.194.194.51 0 .706s-.513.195-.708 0L13.5 2.207V12c0 .276-.224.5-.5.5z"/></symbol>
	<symbol id="icon-pencil" class="symbol-pencil" width="25" height="25" viewBox="0 0 25 25"><path d="M.4 23.6c.2.1.4.2.6.1L6.4 21 3 17.6.3 23c-.1.2 0 .4.1.6zm21.5-18l1.1-1c1-1 1-2.6 0-3.5-.5-.5-1.1-.7-1.8-.7s-1.3.2-1.8.6l-1.1 1.1 3.6 3.5zm-.7.7l-14 14.1-3.5-3.5 14-14.1 3.5 3.5z"/></symbol>
	<symbol id="icon-phone" class="symbol-phone" width="25" height="25" viewBox="0 0 25 25"><path d="M18.5 23.5c-.8 0-1.5-.2-2.2-.7-6-4-11.2-9.2-15.2-15.2-1-1.6-.8-3.7.5-5L3 1.3C4.1.2 5.9.2 7 1.3l2.5 2.5c1.1 1.1 1.1 2.9 0 4l-.6.4c2 2.4 4.4 4.8 6.8 6.8l.5-.5c.5-.5 1.2-.8 2-.8s1.5.3 2 .8l2.5 2.5c1.1 1.1 1.1 2.9 0 4l-1.3 1.3c-.8.8-1.9 1.2-2.9 1.2zM5 1.5c-.5 0-.9.2-1.3.5L2.4 3.4c-1 1-1.2 2.6-.4 3.7 3.9 5.9 9 11 14.9 14.9 1.2.8 2.7.6 3.7-.4l1.3-1.3c.7-.7.7-1.9 0-2.6l-2.5-2.5c-.3-.3-.8-.5-1.3-.5s-.9.2-1.3.5l-.8.8c-.2.2-.5.2-.7 0-2.7-2.2-5.4-4.9-7.6-7.6 0-.1 0-.4.2-.5l.8-.9c.7-.7.7-1.9 0-2.6L6.3 2c-.4-.3-.8-.5-1.3-.5zm4.1 5.9z"/></symbol>
	<symbol id="icon-plus" class="symbol-plus" width="25" height="25" viewBox="0 0 25 25"><path d="M12,24a0.52,0.52,0,0,1-.52-0.52v-11h-11a0.52,0.52,0,1,1,0-1h11v-11a0.52,0.52,0,1,1,1,0v11h11a0.52,0.52,0,0,1,0,1h-11v11A0.52,0.52,0,0,1,12,24Z"/></symbol>
	<symbol id="icon-lock" class="symbol-lock" width="24" height="24" viewBox="0 0 24 24"><path d="M13 15c0-0.6-0.4-1-1-1 -0.6 0-1 0.4-1 1 0 0.4 0.2 0.7 0.5 0.8V18.5c0 0.3 0.2 0.5 0.5 0.5s0.5-0.2 0.5-0.5v-2.7C12.8 15.7 13 15.4 13 15z"/><path d="M20.5 24h-17C3.2 24 3 23.8 3 23.5v-14C3 9.2 3.2 9 3.5 9H6V6c0-3.3 2.7-6 6-6 3.3 0 6 2.7 6 6v3h2.5C20.8 9 21 9.2 21 9.5v14C21 23.8 20.8 24 20.5 24zM4 23h16V10H4V23zM7 9h10V6c0-2.8-2.2-5-5-5S7 3.2 7 6V9z"/></symbol>
	<symbol id="icon-search" class="symbol-search" width="100" height="100" viewBox="0 0 100 100"><path d="M72.3 56.8c2.7-5.2 4.3-11.3 4.3-17.6C76.6 18 59.4.9 38.3.9 17.2.9 0 18 0 39.2s17.1 38.3 38.3 38.3c9.9 0 18.9-3.8 25.9-10.1l23.9 23.9-3.1 3.1-20.7-20.7-3.4 3.4 20.7 20.7c1.8 1.8 4.5 1.8 6.3 0l3.1-3.1c1.8-1.8 1.8-4.5 0-6.3L67.1 64.3 64 61.2l-3.1 3.1c-6.1 5.4-14 8.8-22.8 8.8C19.4 73.1 4.3 58 4.3 39.3c0-18.7 15.1-33.8 33.8-33.8 18.7 0 33.8 15.1 33.8 33.8 0 5.2-1.1 10.1-3.1 14.4l3.5 3.1z"/></symbol>
	<symbol id="icon-upload" class="symbol-upload" width="24" height="24" viewBox="0 0 24 24"><path d="M23 16.718c-.553 0-1 .448-1 1v1.913c0 1.045-.88 2.37-1.87 2.37H3.87C2.88 22 2 20.675 2 19.63V17.72c0-.552-.448-1-1-1-.553 0-1 .448-1 1v1.913C0 21.694 1.654 24 3.87 24h16.26c2.215 0 3.87-2.307 3.87-4.37V17.72c0-.552-.448-1-1-1zM5.207 8.708L10.5 3.415V17.61c0 .552.447 1 1 1 .552 0 1-.448 1-1V3.414l5.293 5.293c.194.195.45.292.707.292s.512-.097.707-.292c.39-.392.39-1.024 0-1.414l-7-7c-.407-.407-1.055-.368-1.415 0l-7 7c-.39.39-.39 1.022 0 1.414.39.39 1.024.39 1.415 0z"/></symbol>
</svg>